<svg width="175" height="159" viewBox="0 0 175 159" fill="none" xmlns="http://www.w3.org/2000/svg">
<g clip-path="url(#clip0_2_294)">
<g clip-path="url(#clip1_2_294)">
<g clip-path="url(#clip2_2_294)">
<mask id="mask0_2_294" style="mask-type:luminance" maskUnits="userSpaceOnUse" x="0" y="-53" width="241" height="228">
<path d="M0 -52.9125H240.942V174.816H0V-52.9125Z" fill="white"/>
</mask>
<g mask="url(#mask0_2_294)">
<path d="M120.474 -7.89947C97.7705 -7.89947 79.2979 9.66774 79.2979 31.2574C79.2979 52.8458 97.7705 70.413 120.474 70.413C143.178 70.413 161.651 52.8458 161.651 31.2574C161.651 9.66774 143.177 -7.89947 120.474 -7.89947ZM111.219 125.794L110.997 125.603L105.751 121.087L93.4044 110.465L79.9789 111.839L71.7627 112.676L69.8162 112.877L63.5428 113.516L43.7894 153.434L74.3801 153.818L94.1805 175.985L116.691 130.501L111.219 125.794ZM177.403 113.516L171.131 112.877L169.183 112.681L160.968 111.839L147.543 110.465L135.196 121.087L129.949 125.603L129.728 125.794L124.255 130.501L146.767 175.985L166.567 153.818L197.157 153.434L177.403 113.516Z" fill="#EDDFFF"/>
<path d="M192.589 31.2587L204.874 5.18119L178.817 -9.04834L172.637 -37.0141L142.758 -33.963L120.473 -53.1306L98.1902 -33.9617L68.3108 -37.0141L62.1326 -9.04834L36.0728 5.17992L48.3583 31.2575L36.0728 57.335L62.1326 71.5632L68.3108 99.529L70.5884 99.2969L78.8083 98.4549L87.0244 97.618L89.2259 97.3948H89.2309L98.1902 96.4779L104.929 102.273L112.039 108.389L114.255 110.295L117.511 113.097L120.475 115.647L123.44 113.097L126.696 110.294L128.912 108.389L134.441 103.636L134.446 103.633L142.759 96.4779L157.279 97.9591H157.284L158.762 98.1113L162.14 98.4562H162.145L170.361 99.2969L172.639 99.5303L178.817 71.5645L204.876 57.3363L192.589 31.2587ZM120.473 83.8361C89.988 83.8361 65.1798 60.2517 65.1798 31.2562C65.1798 2.26579 89.9867 -21.3237 120.473 -21.3237C150.96 -21.3237 175.767 2.26579 175.767 31.2562C175.767 60.2517 150.96 83.8361 120.473 83.8361Z" fill="#EDDFFF"/>
</g>
</g>
</g>
</g>
<defs>
<clipPath id="clip0_2_294">
<rect width="174.75" height="158.49" fill="white" transform="scale(1.00143)"/>
</clipPath>
<clipPath id="clip1_2_294">
<rect width="174.75" height="158.49" fill="white" transform="scale(1.00143)"/>
</clipPath>
<clipPath id="clip2_2_294">
<rect width="174.75" height="191.212" fill="white" transform="translate(0 -16.3842) scale(1.00143)"/>
</clipPath>
</defs>
</svg>
