<svg width="24" height="24" viewBox="0 0 24 24" fill="none" xmlns="http://www.w3.org/2000/svg">
<g clip-path="url(#clip0_2_366)">
<g clip-path="url(#clip1_2_366)">
<g clip-path="url(#clip2_2_366)">
<mask id="mask0_2_366" style="mask-type:luminance" maskUnits="userSpaceOnUse" x="0" y="0" width="24" height="24">
<path d="M24 24H0V0H24V24Z" fill="white"/>
</mask>
<g mask="url(#mask0_2_366)">
<path d="M16 19C16 18.258 16.733 17.15 17.475 16.22C18.429 15.02 19.569 13.973 20.876 13.174C21.856 12.575 23.044 12 24 12M24 12C23.044 12 21.855 11.425 20.876 10.826C19.569 10.026 18.429 8.979 17.475 7.781C16.733 6.85 16 5.74 16 5M24 12H0" stroke="white"/>
</g>
</g>
</g>
</g>
<defs>
<clipPath id="clip0_2_366">
<rect width="24" height="24" fill="white"/>
</clipPath>
<clipPath id="clip1_2_366">
<rect width="24" height="24" fill="white"/>
</clipPath>
<clipPath id="clip2_2_366">
<rect width="25" height="24" fill="white" transform="translate(-0.5)"/>
</clipPath>
</defs>
</svg>
