<svg width="68" height="68" viewBox="0 0 68 68" fill="none" xmlns="http://www.w3.org/2000/svg">
<rect width="68" height="68" rx="12" fill="#E8EEFF"/>
<g clip-path="url(#clip0_2_1312)">
<g clip-path="url(#clip1_2_1312)">
<g clip-path="url(#clip2_2_1312)">
<mask id="mask0_2_1312" style="mask-type:luminance" maskUnits="userSpaceOnUse" x="12" y="12" width="44" height="44">
<path d="M12 12H56V56H12V12Z" fill="white"/>
</mask>
<g mask="url(#mask0_2_1312)">
<path d="M37.1138 12.412C35.07 11.9004 32.9317 11.9004 30.8878 12.412L22.2438 14.87C21.4673 15.0907 20.7756 15.541 20.2595 16.1617C19.7434 16.7825 19.4269 17.5447 19.3515 18.3484C19.2761 19.1522 19.4454 19.96 19.8372 20.6659C20.229 21.3717 20.8249 21.9427 21.5468 22.304L23.0008 23.03C23.0008 23.03 26.6678 24.864 34.0008 24.864C41.3338 24.864 45.0008 23.03 45.0008 23.03L46.4548 22.304C47.1768 21.9427 47.7727 21.3717 48.1645 20.6659C48.5563 19.96 48.7256 19.1522 48.6502 18.3484C48.5748 17.5447 48.2583 16.7825 47.7422 16.1617C47.2261 15.541 46.5344 15.0907 45.7578 14.87L37.1138 12.412ZM33.0588 21.845L30.0468 20.039C29.6299 19.7889 29.3294 19.3834 29.2115 18.9117C29.0935 18.4401 29.1677 17.9409 29.4178 17.524C29.6679 17.107 30.0734 16.8065 30.5451 16.6886C31.0167 16.5706 31.5159 16.6449 31.9328 16.895L34.0008 18.136L36.0688 16.895C36.2753 16.7711 36.5041 16.689 36.7422 16.6536C36.9804 16.6181 37.2232 16.6299 37.4568 16.6882C37.6903 16.7466 37.9102 16.8504 38.1036 16.9937C38.2971 17.137 38.4604 17.317 38.5843 17.5235C38.7082 17.7299 38.7903 17.9587 38.8257 18.1969C38.8612 18.435 38.8494 18.6778 38.7911 18.9114C38.7327 19.145 38.6289 19.3648 38.4856 19.5582C38.3423 19.7517 38.1623 19.9151 37.9558 20.039L34.9428 21.845C34.658 22.0159 34.332 22.1061 33.9998 22.1061C33.6677 22.1061 33.3417 22.0159 33.0568 21.845H33.0588ZM44.9858 26.96C44.8288 32.889 39.9688 37.667 34.0008 37.667C28.0328 37.667 23.1728 32.889 23.0158 26.96C24.9658 27.62 28.5998 28.53 34.0008 28.53C39.4018 28.53 43.0358 27.62 44.9858 26.96ZM50.4858 53.94C50.5179 54.1979 50.4947 54.4597 50.4179 54.708C50.3411 54.9563 50.2123 55.1855 50.0402 55.3802C49.8682 55.575 49.6566 55.731 49.4197 55.8379C49.1827 55.9447 48.9258 56 48.6658 56H38.3718C37.7618 56 37.6288 55.3 37.6288 55.3L34.9158 45L38.0688 39.984C44.6998 41.534 49.5948 46.83 50.4838 53.939L50.4858 53.94ZM29.4868 56H19.3338C19.074 55.9998 18.8171 55.9444 18.5802 55.8375C18.3434 55.7306 18.1319 55.5747 17.9598 55.3799C17.7878 55.1852 17.659 54.9561 17.5821 54.7078C17.5053 54.4596 17.482 54.1979 17.5138 53.94C18.4028 46.83 23.2978 41.533 29.9288 39.984L33.0828 45L30.2278 55.3C30.2278 55.3 30.0958 56 29.4848 56H29.4868Z" fill="#2963FF"/>
</g>
</g>
</g>
</g>
<defs>
<clipPath id="clip0_2_1312">
<rect width="44" height="44" fill="white" transform="translate(12 12)"/>
</clipPath>
<clipPath id="clip1_2_1312">
<rect width="44" height="44" fill="white" transform="translate(12 12)"/>
</clipPath>
<clipPath id="clip2_2_1312">
<rect width="44" height="45" fill="white" transform="translate(12 11.5)"/>
</clipPath>
</defs>
</svg>
