<svg width="70" height="70" viewBox="0 0 70 70" fill="none" xmlns="http://www.w3.org/2000/svg">
<g clip-path="url(#clip0_2_304)">
<g clip-path="url(#clip1_2_304)">
<g clip-path="url(#clip2_2_304)">
<mask id="mask0_2_304" style="mask-type:luminance" maskUnits="userSpaceOnUse" x="0" y="0" width="70" height="70">
<path d="M0 0H70V70H0V0Z" fill="white"/>
</mask>
<g mask="url(#mask0_2_304)">
<path d="M68.4959 33.4782C68.4959 51.9672 53.4999 66.9552 34.9999 66.9552C16.4999 66.9552 1.50391 51.9672 1.50391 33.4782C1.50391 21.2282 8.08691 10.5152 17.9099 4.67915C18.1669 4.52615 29.0779 8.46215 34.9999 8.46215C40.9219 8.46215 51.8329 4.52615 52.0899 4.67915C61.9129 10.5152 68.4959 21.2282 68.4959 33.4782Z" fill="#0055CA"/>
<path d="M62.344 36.1401C62.344 51.2331 50.102 63.4681 35 63.4681C19.898 63.4681 7.65601 51.2331 7.65601 36.1401C7.65601 21.0471 19.898 8.81006 35 8.81006C50.102 8.81006 62.344 21.0471 62.344 36.1401Z" fill="#0066ED"/>
<path d="M52.0898 4.68001V13.036C52.0898 14.224 51.3208 15.276 50.1888 15.639L45.5298 17.129L44.6088 16.564L38.7198 18.447L38.2138 19.468L34.9998 20.497L31.7858 19.468L31.1238 18.308L25.1308 16.39L24.4698 17.129L21.0218 16.026C20.8361 15.9667 20.674 15.8498 20.559 15.6924C20.4439 15.5349 20.3819 15.345 20.3818 15.15V4.00201C20.3818 3.59801 20.6198 3.23201 20.9868 3.06201C22.1148 2.54201 23.2768 2.08301 24.4698 1.68901C24.6508 1.62901 24.8398 2.23001 25.0228 2.17301C26.9851 1.56169 28.9997 1.1332 31.0408 0.893008C31.2908 0.864008 31.5348 0.177008 31.7858 0.153008C33.9237 -0.0503517 36.076 -0.0503517 38.2138 0.153008C38.4418 0.175008 38.6518 0.692008 38.8788 0.718008C40.9368 0.956008 42.9388 1.38101 44.8658 1.97501C45.0828 2.04201 45.3158 1.61801 45.5298 1.68901C47.8182 2.44586 50.0178 3.44873 52.0898 4.68001Z" fill="#FF5757"/>
<path d="M21.2099 16.0862L19.8109 15.6392C19.2592 15.4626 18.7779 15.1154 18.4364 14.6475C18.0949 14.1797 17.9109 13.6154 17.9109 13.0362V4.67917C18.9693 4.05036 20.0616 3.48049 21.1829 2.97217V15.5452C21.1829 15.7272 21.1929 15.9082 21.2109 16.0862H21.2099Z" fill="#FF4343"/>
<path d="M39.7869 18.4468H30.2169C29.0393 18.4476 27.91 18.9155 27.0769 19.7479C26.2437 20.5802 25.7748 21.7091 25.7729 22.8868C25.7743 24.0648 26.243 25.1942 27.0761 26.027C27.9093 26.8598 29.0389 27.328 30.2169 27.3288H39.7869C40.9648 27.328 42.0942 26.8599 42.9274 26.0273C43.7605 25.1948 44.2294 24.0656 44.2309 22.8878C44.2294 21.7099 43.7605 20.5808 42.9274 19.7482C42.0942 18.9156 40.9648 18.4476 39.7869 18.4468ZM39.7869 25.2788H30.2169C29.5828 25.2782 28.9747 25.0262 28.5261 24.578C28.0775 24.1298 27.825 23.5219 27.8239 22.8878C27.8247 22.2535 28.0771 21.6453 28.5258 21.1969C28.9744 20.7485 29.5826 20.4963 30.2169 20.4958H39.7869C40.4213 20.4963 41.0295 20.7485 41.4781 21.1969C41.9267 21.6453 42.1792 22.2535 42.1799 22.8878C42.1786 23.5218 41.926 24.1293 41.4774 24.5774C41.0288 25.0254 40.4209 25.2782 39.7869 25.2788Z" fill="#FF9500"/>
<path d="M45.53 1.68786V17.1279L38.213 19.4679V0.151855C40.7015 0.388224 43.1566 0.903456 45.53 1.68786ZM24.469 17.1279L31.785 19.4679V0.152855C29.2965 0.389224 26.8424 0.904456 24.469 1.68886V17.1279Z" fill="#FFF5F5"/>
<path d="M35.7539 19.1302V20.4962C35.7539 21.2512 35.1409 21.8632 34.3859 21.8632H31.4459C31.2663 21.8633 31.0884 21.828 30.9224 21.7594C30.7565 21.6908 30.6057 21.5901 30.4786 21.4631C30.3516 21.3362 30.2508 21.1854 30.182 21.0195C30.1133 20.8536 30.0779 20.6758 30.0779 20.4962V19.1302C30.0779 18.3752 30.6899 17.7642 31.4449 17.7642H34.3859C35.1409 17.7642 35.7529 18.3752 35.7529 19.1302H35.7539Z" fill="#FFAA00"/>
<path d="M39.9208 19.1302V20.4962C39.9208 21.2512 39.3088 21.8632 38.5538 21.8632H34.2298C34.0503 21.8632 33.8725 21.8278 33.7067 21.7591C33.5408 21.6904 33.3901 21.5897 33.2632 21.4628C33.1362 21.3358 33.0355 21.1851 32.9669 21.0193C32.8982 20.8534 32.8628 20.6757 32.8628 20.4962V19.1302C32.8628 18.3752 33.4748 17.7642 34.2298 17.7642H38.5538C39.3088 17.7642 39.9208 18.3752 39.9208 19.1302Z" fill="#FFC143"/>
<path d="M36.925 25.2729L42.525 36.6159C42.6792 36.928 42.9069 37.198 43.1886 37.4025C43.4703 37.607 43.7975 37.74 44.142 37.7899L56.666 39.6089C58.427 39.8639 59.131 42.0269 57.856 43.2689L48.794 52.0969C48.5445 52.3397 48.3579 52.6395 48.2503 52.9705C48.1426 53.3016 48.1171 53.6538 48.176 53.9969L50.316 66.4629C50.616 68.2159 48.776 69.5529 47.201 68.7249L35.999 62.8399C35.6909 62.678 35.348 62.5934 35 62.5934C34.6519 62.5934 34.3091 62.678 34.001 62.8399L22.799 68.7259C21.224 69.5539 19.383 68.2169 19.683 66.4639L21.823 53.9979C21.8819 53.6548 21.8564 53.3026 21.7487 52.9715C21.641 52.6405 21.4544 52.3407 21.205 52.0979L12.143 43.2699C10.869 42.0279 11.572 39.8649 13.333 39.6099L25.857 37.7899C26.557 37.6889 27.161 37.2499 27.473 36.6169L33.074 25.2739C33.862 23.6789 36.137 23.6789 36.924 25.2739L36.925 25.2729Z" fill="#FFD98F"/>
<path d="M57.857 43.2689L48.794 52.0978C48.5448 52.3406 48.3585 52.6404 48.251 52.9712C48.1435 53.302 48.1181 53.654 48.177 53.9969L50.317 66.4628C50.3699 66.7562 50.3601 67.0574 50.288 67.3467C50.216 67.636 50.0834 67.9066 49.899 68.1409L34.179 51.9238V24.2368C35.157 23.8388 36.388 24.1848 36.925 25.2738L42.526 36.6159C42.6801 36.928 42.9079 37.1979 43.1895 37.4024C43.4712 37.607 43.7984 37.7399 44.143 37.7899L56.667 39.6089C58.427 39.8639 59.131 42.0268 57.857 43.2689Z" fill="#FFE1A8"/>
<path d="M48.205 70.0002C47.6891 69.9994 47.1811 69.8731 46.725 69.6323L35.523 63.7463C35.3621 63.6618 35.1831 63.6177 35.0015 63.6177C34.8198 63.6177 34.6408 63.6618 34.48 63.7463L23.278 69.6323C22.7547 69.9099 22.1638 70.0347 21.573 69.9922C20.9821 69.9498 20.4152 69.7419 19.937 69.3922C19.4562 69.0462 19.0828 68.5715 18.8596 68.0228C18.6364 67.4742 18.5724 66.8737 18.675 66.2902L20.815 53.8233C20.8457 53.6441 20.8323 53.4602 20.776 53.2873C20.7197 53.1145 20.6223 52.958 20.492 52.8313L11.429 44.0032C11.0032 43.5918 10.702 43.0686 10.56 42.4938C10.4179 41.9189 10.4408 41.3157 10.626 40.7532C10.8069 40.1893 11.1432 39.6877 11.5961 39.306C12.0491 38.9243 12.6004 38.678 13.187 38.5953L25.711 36.7753C25.8909 36.7495 26.0619 36.6803 26.2091 36.5737C26.3563 36.467 26.4753 36.3262 26.556 36.1632L32.156 24.8202C32.4163 24.2882 32.8213 23.8403 33.3245 23.5278C33.8276 23.2153 34.4086 23.0508 35.001 23.0532C36.218 23.0532 37.308 23.7302 37.846 24.8202L43.447 36.1632C43.611 36.4932 43.927 36.7233 44.292 36.7763L56.816 38.5953C57.4022 38.6781 57.9532 38.9243 58.406 39.3058C58.8587 39.6873 59.1949 40.1886 59.376 40.7522C59.5612 41.3146 59.5843 41.9178 59.4424 42.4926C59.3006 43.0674 58.9996 43.5906 58.574 44.0022L49.511 52.8323C49.3809 52.9591 49.2835 53.1157 49.2274 53.2885C49.1713 53.4613 49.1581 53.6452 49.189 53.8243L51.329 66.2902C51.4312 66.8736 51.367 67.474 51.1436 68.0225C50.9202 68.571 50.5467 69.0454 50.066 69.3912C49.5256 69.7859 48.8741 69.9991 48.205 70.0002ZM35.002 25.1022C34.7921 25.0996 34.5859 25.1571 34.4077 25.2678C34.2294 25.3785 34.0866 25.538 33.996 25.7272L28.396 37.0693C28.1682 37.5307 27.8317 37.9297 27.4153 38.232C26.9989 38.5342 26.5152 38.7307 26.006 38.8043L13.482 40.6233C13.2741 40.6509 13.0784 40.7375 12.9181 40.8726C12.7577 41.0078 12.6394 41.186 12.577 41.3863C12.5099 41.5849 12.5009 41.7986 12.5513 42.0022C12.6016 42.2058 12.709 42.3907 12.861 42.5352L21.923 51.3642C22.2913 51.7228 22.5669 52.1657 22.726 52.6545C22.885 53.1434 22.9228 53.6636 22.836 54.1702L20.696 66.6362C20.658 66.8427 20.68 67.0557 20.7592 67.2501C20.8384 67.4444 20.9716 67.6121 21.143 67.7332C21.3111 67.8584 21.5115 67.9328 21.7206 67.9479C21.9296 67.9629 22.1386 67.918 22.323 67.8182L33.526 61.9322C33.9812 61.6931 34.4877 61.5682 35.002 61.5682C35.5162 61.5682 36.0227 61.6931 36.478 61.9322L47.68 67.8182C48.066 68.0212 48.508 67.9893 48.861 67.7332C49.0324 67.6121 49.1655 67.4444 49.2447 67.2501C49.3239 67.0557 49.3459 66.8427 49.308 66.6362L47.168 54.1702C47.0811 53.6636 47.1189 53.1434 47.2779 52.6545C47.437 52.1657 47.7126 51.7228 48.081 51.3642L57.143 42.5343C57.2947 42.3898 57.402 42.205 57.4524 42.0017C57.5027 41.7983 57.4939 41.5848 57.427 41.3863C57.3645 41.186 57.2462 41.0078 57.0858 40.8726C56.9255 40.7375 56.7299 40.6509 56.522 40.6233L43.998 38.8033C43.489 38.7296 43.0056 38.5333 42.5894 38.2312C42.1732 37.9291 41.8367 37.5303 41.609 37.0693L36.008 25.7272C35.9172 25.5381 35.7743 25.3788 35.5961 25.2681C35.4179 25.1574 35.2117 25.0999 35.002 25.1022Z" fill="#FFAA00"/>
<path d="M35.754 55.2638L35.637 55.2028C35.5286 55.1455 35.4128 55.1034 35.293 55.0778C35.197 55.0568 35.099 55.8078 35.001 55.8078C34.783 55.8078 34.564 55.8588 34.365 55.9638L29.788 58.3688C28.785 58.8958 27.613 58.0448 27.804 56.9288L28.678 51.8348C28.7155 51.6164 28.6994 51.3921 28.6309 51.1813C28.5625 50.9705 28.4437 50.7795 28.285 50.6248L24.582 47.0178C23.771 46.2278 24.219 44.8498 25.34 44.6878L30.457 43.9438C30.902 43.8798 31.287 43.5998 31.487 43.1968L33.775 38.5618C33.8864 38.332 34.0607 38.1385 34.2778 38.0038C34.4948 37.8691 34.7455 37.7987 35.001 37.8008C35.114 37.8008 35.228 38.9378 35.338 38.9648C35.484 39.0018 35.625 39.0618 35.754 39.1468V55.2638Z" fill="#FFAA00"/>
<path d="M45.419 47.0178L41.716 50.6248C41.394 50.9388 41.246 51.3918 41.323 51.8348L42.197 56.9278C42.388 58.0448 41.217 58.8958 40.213 58.3678L35.636 55.9638C35.4398 55.8607 35.2216 55.8068 35 55.8068V37.8008C35.488 37.8008 35.975 38.0548 36.226 38.5618L38.514 43.1968C38.714 43.5998 39.099 43.8798 39.544 43.9438L44.661 44.6868C45.782 44.8498 46.231 46.2268 45.419 47.0178Z" fill="#FFC143"/>
<path d="M37.9949 49.4638L35.4809 51.9758C35.3527 52.1037 35.179 52.1755 34.9979 52.1755C34.8168 52.1755 34.6431 52.1037 34.5149 51.9758L31.9999 49.4638C31.9365 49.4004 31.8861 49.3251 31.8518 49.2422C31.8175 49.1594 31.7998 49.0705 31.7998 48.9808C31.7998 48.8911 31.8175 48.8023 31.8518 48.7194C31.8861 48.6366 31.9365 48.5613 31.9999 48.4978L34.5139 45.9848C34.6421 45.857 34.8158 45.7852 34.9969 45.7852C35.178 45.7852 35.3517 45.857 35.4799 45.9848L37.9939 48.4978C38.0573 48.5613 38.1077 48.6366 38.142 48.7194C38.1763 48.8023 38.194 48.8911 38.194 48.9808C38.194 49.0705 38.1763 49.1594 38.142 49.2422C38.1077 49.3251 38.0583 49.4004 37.9949 49.4638Z" fill="#FF9500"/>
<path d="M37.0848 50.912L34.7648 48.593C34.7267 48.5549 34.6965 48.5097 34.6759 48.46C34.6552 48.4102 34.6446 48.3569 34.6446 48.303C34.6446 48.2491 34.6552 48.1958 34.6759 48.146C34.6965 48.0963 34.7267 48.0511 34.7648 48.013L37.0848 45.694C37.1229 45.6559 37.1681 45.6257 37.2178 45.6051C37.2676 45.5844 37.3209 45.5738 37.3748 45.5738C37.4287 45.5738 37.482 45.5844 37.5318 45.6051C37.5815 45.6257 37.6267 45.6559 37.6648 45.694L39.9848 48.013C40.1448 48.173 40.1448 48.433 39.9848 48.593L37.6648 50.912C37.6267 50.9501 37.5815 50.9803 37.5318 51.0009C37.482 51.0216 37.4287 51.0322 37.3748 51.0322C37.3209 51.0322 37.2676 51.0216 37.2178 51.0009C37.1681 50.9803 37.1229 50.9501 37.0848 50.912ZM48.1698 33.218L49.8048 31.583C49.8429 31.5449 49.8731 31.4997 49.8937 31.45C49.9144 31.4002 49.925 31.3469 49.925 31.293C49.925 31.2391 49.9144 31.1858 49.8937 31.136C49.8731 31.0863 49.8429 31.0411 49.8048 31.003L48.1698 29.37C48.1317 29.3319 48.0865 29.3017 48.0368 29.2811C47.987 29.2604 47.9337 29.2498 47.8798 29.2498C47.8259 29.2498 47.7726 29.2604 47.7228 29.2811C47.6731 29.3017 47.6279 29.3319 47.5898 29.37L45.9538 31.004C45.9157 31.0421 45.8855 31.0873 45.8649 31.137C45.8442 31.1868 45.8336 31.2401 45.8336 31.294C45.8336 31.3479 45.8442 31.4012 45.8649 31.451C45.8855 31.5007 45.9157 31.5459 45.9538 31.584L47.5898 33.219C47.7498 33.379 48.0098 33.379 48.1698 33.219V33.218ZM12.6778 20.748L11.0418 19.113C11.0037 19.0749 10.9735 19.0297 10.9529 18.98C10.9322 18.9302 10.9216 18.8769 10.9216 18.823C10.9216 18.7691 10.9322 18.7158 10.9529 18.666C10.9735 18.6163 11.0037 18.5711 11.0418 18.533L12.6778 16.898C12.7159 16.8599 12.7611 16.8297 12.8108 16.8091C12.8606 16.7884 12.9139 16.7778 12.9678 16.7778C13.0217 16.7778 13.075 16.7884 13.1248 16.8091C13.1745 16.8297 13.2197 16.8599 13.2578 16.898L14.8928 18.532C15.0528 18.692 15.0528 18.952 14.8928 19.112L13.2568 20.747C13.2187 20.7851 13.1735 20.8153 13.1238 20.8359C13.074 20.8566 13.0207 20.8672 12.9668 20.8672C12.9129 20.8672 12.8596 20.8566 12.8098 20.8359C12.7601 20.8153 12.7149 20.7851 12.6768 20.747L12.6778 20.748Z" fill="#FFF5F5"/>
<path d="M21.869 33.4579L20.233 31.8229C20.1949 31.7848 20.1646 31.7396 20.144 31.6898C20.1234 31.6401 20.1128 31.5868 20.1128 31.5329C20.1128 31.479 20.1234 31.4257 20.144 31.3759C20.1646 31.3262 20.1949 31.281 20.233 31.2429L21.869 29.6089C21.907 29.5708 21.9522 29.5406 22.002 29.5199C22.0518 29.4993 22.1051 29.4887 22.159 29.4887C22.2128 29.4887 22.2662 29.4993 22.3159 29.5199C22.3657 29.5406 22.4109 29.5708 22.449 29.6089L24.084 31.2429C24.244 31.4029 24.244 31.6629 24.084 31.8229L22.449 33.4579C22.4109 33.496 22.3657 33.5262 22.3159 33.5468C22.2662 33.5674 22.2128 33.5781 22.159 33.5781C22.1051 33.5781 22.0518 33.5674 22.002 33.5468C21.9522 33.5262 21.907 33.496 21.869 33.4579ZM59.275 26.0019L60.91 24.3679C60.9481 24.3298 60.9783 24.2846 60.9989 24.2348C61.0195 24.1851 61.0301 24.1317 61.0301 24.0779C61.0301 24.024 61.0195 23.9707 60.9989 23.9209C60.9783 23.8712 60.9481 23.826 60.91 23.7879L59.275 22.1529C59.2369 22.1148 59.1917 22.0846 59.1419 22.0639C59.0922 22.0433 59.0388 22.0327 58.985 22.0327C58.9311 22.0327 58.8778 22.0433 58.828 22.0639C58.7783 22.0846 58.733 22.1148 58.695 22.1529L57.059 23.7869C57.0209 23.825 56.9906 23.8702 56.97 23.9199C56.9494 23.9697 56.9388 24.023 56.9388 24.0769C56.9388 24.1307 56.9494 24.1841 56.97 24.2338C56.9906 24.2836 57.0209 24.3288 57.059 24.3669L58.695 26.0019C58.855 26.1619 59.115 26.1619 59.275 26.0019Z" fill="#FFAA00"/>
</g>
</g>
</g>
</g>
<defs>
<clipPath id="clip0_2_304">
<rect width="70" height="70" fill="white"/>
</clipPath>
<clipPath id="clip1_2_304">
<rect width="70" height="70" fill="white"/>
</clipPath>
<clipPath id="clip2_2_304">
<rect width="70" height="71" fill="white" transform="translate(0 -0.5)"/>
</clipPath>
</defs>
</svg>
