<svg width="48" height="48" viewBox="0 0 48 48" fill="none" xmlns="http://www.w3.org/2000/svg">
<g clip-path="url(#clip0_2_1940)">
<g clip-path="url(#clip1_2_1940)">
<path d="M21 21L25.5 24L30 21M15 25.5H17M13 22.5H17" stroke="#519B91" stroke-width="1.5" stroke-linecap="round" stroke-linejoin="round"/>
<path d="M17 19.5V19C17 18.4696 17.2107 17.9609 17.5858 17.5858C17.9609 17.2107 18.4696 17 19 17H32C32.5304 17 33.0391 17.2107 33.4142 17.5858C33.7893 17.9609 34 18.4696 34 19V29C34 29.5304 33.7893 30.0391 33.4142 30.4142C33.0391 30.7893 32.5304 31 32 31H19C18.4696 31 17.9609 30.7893 17.5858 30.4142C17.2107 30.0391 17 29.5304 17 29V28.5" stroke="#519B91" stroke-width="1.5" stroke-linecap="round"/>
</g>
</g>
<rect x="0.5" y="0.5" width="47" height="47" rx="23.5" stroke="#E7E8E7"/>
<defs>
<clipPath id="clip0_2_1940">
<rect width="24" height="24" fill="white" transform="translate(12 12)"/>
</clipPath>
<clipPath id="clip1_2_1940">
<rect width="24" height="24" fill="white" transform="translate(12 12)"/>
</clipPath>
</defs>
</svg>
