<svg width="68" height="68" viewBox="0 0 68 68" fill="none" xmlns="http://www.w3.org/2000/svg">
<rect width="68" height="68" rx="12" fill="#F6EFFF"/>
<g clip-path="url(#clip0_2_1325)">
<g clip-path="url(#clip1_2_1325)">
<g clip-path="url(#clip2_2_1325)">
<mask id="mask0_2_1325" style="mask-type:luminance" maskUnits="userSpaceOnUse" x="12" y="12" width="44" height="44">
<path d="M12 12H56V56H12V12Z" fill="white"/>
</mask>
<g mask="url(#mask0_2_1325)">
<path d="M43.0729 15.7581C41.8843 14.5626 40.4704 13.6149 38.913 12.9699C37.3555 12.3248 35.6856 11.9951 33.9999 12.0001C32.3139 11.9953 30.6437 12.325 29.086 12.9701C27.5282 13.6151 26.1139 14.5628 24.9249 15.7581C19.9219 20.7611 19.9219 28.9031 24.9399 33.9211L29.5139 38.3951C30.7141 39.5636 32.3247 40.2149 33.9999 40.2091C35.675 40.2149 37.2856 39.5636 38.4859 38.3951L43.0729 33.9071C44.2684 32.7181 45.2164 31.3038 45.8618 29.7461C46.5072 28.1884 46.8372 26.5182 46.8329 24.8321C46.8372 23.1461 46.5071 21.476 45.8617 19.9185C45.2163 18.3609 44.2684 16.9468 43.0729 15.7581ZM33.9999 30.3151C32.5412 30.3151 31.1422 29.7356 30.1108 28.7041C29.0793 27.6727 28.4999 26.2737 28.4999 24.8151C28.4999 23.3564 29.0793 21.9574 30.1108 20.926C31.1422 19.8945 32.5412 19.3151 33.9999 19.3151C35.4586 19.3151 36.8575 19.8945 37.889 20.926C38.9204 21.9574 39.4999 23.3564 39.4999 24.8151C39.4999 26.2737 38.9204 27.6727 37.889 28.7041C36.8575 29.7356 35.4586 30.3151 33.9999 30.3151ZM55.9999 42.7301C56.0017 43.0483 55.9206 43.3616 55.7646 43.639C55.6085 43.9164 55.3829 44.1484 55.1099 44.3121L37.0329 55.1601C36.1178 55.7103 35.0701 56.001 34.0024 56.001C32.9346 56.001 31.887 55.7103 30.9719 55.1601L12.8899 44.3121C12.6173 44.1481 12.392 43.9161 12.2362 43.6387C12.0805 43.3614 11.9996 43.0482 12.0015 42.7301C12.0034 42.412 12.0881 42.0999 12.2472 41.8245C12.4063 41.549 12.6343 41.3197 12.9089 41.1591L21.8089 35.9491C21.9929 36.1501 22.1819 36.3501 22.3759 36.5451L26.9499 41.0161C28.8324 42.8595 31.3651 43.8877 33.9999 43.8781C36.6599 43.8781 39.1649 42.8601 41.0509 41.0161L45.6669 36.5011C45.8469 36.3211 46.0229 36.1361 46.1929 35.9491L55.0929 41.1571C55.6519 41.4851 55.9959 42.0851 55.9999 42.7301Z" fill="#953EFF"/>
</g>
</g>
</g>
</g>
<defs>
<clipPath id="clip0_2_1325">
<rect width="44" height="44" fill="white" transform="translate(12 12)"/>
</clipPath>
<clipPath id="clip1_2_1325">
<rect width="44" height="44" fill="white" transform="translate(12 12)"/>
</clipPath>
<clipPath id="clip2_2_1325">
<rect width="44" height="45" fill="white" transform="translate(12 11.5)"/>
</clipPath>
</defs>
</svg>
