<svg width="68" height="68" viewBox="0 0 68 68" fill="none" xmlns="http://www.w3.org/2000/svg">
<rect width="68" height="68" rx="12" fill="#FFEFEF"/>
<g clip-path="url(#clip0_2_1339)">
<g clip-path="url(#clip1_2_1339)">
<g clip-path="url(#clip2_2_1339)">
<mask id="mask0_2_1339" style="mask-type:luminance" maskUnits="userSpaceOnUse" x="12" y="12" width="44" height="44">
<path d="M12 12H56V56H12V12Z" fill="white"/>
</mask>
<g mask="url(#mask0_2_1339)">
<path d="M50.5 23H45C45 16.934 40.067 12 34 12C27.934 12 23 16.934 23 23H17.5C16.0419 23.0019 14.644 23.5819 13.613 24.613C12.5819 25.644 12.0019 27.0419 12 28.5L12 46.833C12 51.888 16.112 56 21.167 56H26.89L24.97 54.123C19.931 49.083 19.924 40.936 24.929 35.931C26.1159 34.7355 27.5284 33.7877 29.0845 33.1424C30.6406 32.4971 32.3094 32.1673 33.994 32.172C35.6809 32.167 37.3521 32.4966 38.9108 33.1416C40.4695 33.7867 41.8849 34.7344 43.075 35.93C48.078 40.934 48.078 49.075 43.075 54.079L41.112 56H46.835C51.89 56 56.002 51.888 56.002 46.833V28.5C56.002 25.468 53.532 23 50.5 23ZM26.667 23C26.6689 21.0557 27.442 19.1916 28.8168 17.8168C30.1916 16.442 32.0557 15.6689 34 15.667C35.9443 15.6689 37.8084 16.442 39.1832 17.8168C40.558 19.1916 41.3311 21.0557 41.333 23H26.667ZM40.48 38.523C39.631 37.6693 38.6212 36.9926 37.5089 36.5318C36.3966 36.0711 35.2039 35.8356 34 35.839H33.992C32.7889 35.8354 31.5971 36.0708 30.4857 36.5315C29.3744 36.9923 28.3656 37.6692 27.518 38.523C23.945 42.096 23.945 47.913 27.533 51.501L30.798 54.695C31.6544 55.5295 32.8043 55.9942 34 55.989C35.16 55.989 36.32 55.559 37.201 54.695L40.481 51.486C44.054 47.913 44.054 42.096 40.481 38.523H40.48ZM34 47.75C33.2835 47.7307 32.6028 47.4325 32.1029 46.9188C31.6029 46.4052 31.3232 45.7168 31.3232 45C31.3232 44.2832 31.6029 43.5948 32.1029 43.0812C32.6028 42.5675 33.2835 42.2693 34 42.25C34.7165 42.2693 35.3972 42.5675 35.8971 43.0812C36.3971 43.5948 36.6768 44.2832 36.6768 45C36.6768 45.7168 36.3971 46.4052 35.8971 46.9188C35.3972 47.4325 34.7165 47.7307 34 47.75Z" fill="#ED3F42"/>
</g>
</g>
</g>
</g>
<defs>
<clipPath id="clip0_2_1339">
<rect width="44" height="44" fill="white" transform="translate(12 12)"/>
</clipPath>
<clipPath id="clip1_2_1339">
<rect width="44" height="44" fill="white" transform="translate(12 12)"/>
</clipPath>
<clipPath id="clip2_2_1339">
<rect width="44" height="45" fill="white" transform="translate(12 11.5)"/>
</clipPath>
</defs>
</svg>
