<svg width="68" height="68" viewBox="0 0 68 68" fill="none" xmlns="http://www.w3.org/2000/svg">
<rect width="68" height="68" rx="12" fill="#FFF1D8"/>
<g clip-path="url(#clip0_2_1352)">
<g clip-path="url(#clip1_2_1352)">
<path d="M21.1672 52.333C22.1395 52.333 23.0719 51.9468 23.7594 51.2592C24.4469 50.5717 24.8332 49.6393 24.8332 48.667V37.667C24.8333 37.1855 24.7386 36.7087 24.5544 36.2638C24.3702 35.8189 24.1002 35.4146 23.7598 35.0741C23.4193 34.7336 23.0152 34.4634 22.5703 34.2791C22.1255 34.0949 21.6487 34 21.1672 34V32.166C21.1672 28.7625 22.5192 25.4983 24.9259 23.0917C27.3325 20.685 30.5967 19.333 34.0002 19.333C37.4037 19.333 40.6678 20.685 43.0745 23.0917C45.4811 25.4983 46.8332 28.7625 46.8332 32.166V34C45.8609 34 44.9284 34.3862 44.2409 35.0737C43.5534 35.7612 43.1672 36.6937 43.1672 37.666V48.666H37.6672C37.1809 48.666 36.7145 48.8592 36.3707 49.203C36.0268 49.5469 35.8337 50.0132 35.8337 50.4995C35.8337 50.9858 36.0268 51.4521 36.3707 51.796C36.7145 52.1398 37.1809 52.333 37.6672 52.333H46.8332C48.934 52.3264 50.9689 51.5985 52.5972 50.2709C54.2254 48.9434 55.3483 47.0968 55.7779 45.0403C56.2074 42.9839 55.9176 40.8422 54.9568 38.9739C53.9961 37.1056 52.4227 35.624 50.5002 34.777V32.167C50.5002 27.7909 48.7618 23.5941 45.6674 20.4997C42.5731 17.4054 38.3762 15.667 34.0002 15.667C29.6241 15.667 25.4273 17.4054 22.3329 20.4997C19.2386 23.5941 17.5002 27.7909 17.5002 32.167V34.777C15.5776 35.624 14.0043 37.1056 13.0435 38.9739C12.0828 40.8422 11.7929 42.9839 12.2225 45.0403C12.652 47.0968 13.7749 48.9434 15.4032 50.2709C17.0315 51.5985 19.0663 52.3264 21.1672 52.333Z" fill="#FFA600"/>
</g>
</g>
<defs>
<clipPath id="clip0_2_1352">
<rect width="44" height="44" fill="white" transform="translate(12 12)"/>
</clipPath>
<clipPath id="clip1_2_1352">
<rect width="44" height="44" fill="white" transform="translate(12 12)"/>
</clipPath>
</defs>
</svg>
