<svg width="299" height="23" viewBox="0 0 299 23" fill="none" xmlns="http://www.w3.org/2000/svg">
<g clip-path="url(#clip0_2_1731)">
<g clip-path="url(#clip1_2_1731)">
<g clip-path="url(#clip2_2_1731)">
<path d="M16.667 8.33302C16.667 12.015 10 18.333 10 18.333C10 18.333 3.33301 12.015 3.33301 8.33302C3.33301 6.56482 4.03542 4.86904 5.28573 3.61873C6.53603 2.36843 8.23181 1.66602 10 1.66602C11.7682 1.66602 13.464 2.36843 14.7143 3.61873C15.9646 4.86904 16.667 6.56482 16.667 8.33302Z" stroke="white" stroke-width="1.5"/>
<path d="M10 9.167C10.2211 9.167 10.4331 9.07919 10.5894 8.92287C10.7457 8.76656 10.8335 8.55456 10.8335 8.3335C10.8335 8.11244 10.7457 7.90044 10.5894 7.74413C10.4331 7.58781 10.2211 7.5 10 7.5C9.77895 7.5 9.56694 7.58781 9.41063 7.74413C9.25432 7.90044 9.1665 8.11244 9.1665 8.3335C9.1665 8.55456 9.25432 8.76656 9.41063 8.92287C9.56694 9.07919 9.77895 9.167 10 9.167Z" fill="white" stroke="white" stroke-width="1.5" stroke-linecap="round" stroke-linejoin="round"/>
</g>
</g>
</g>
<defs>
<clipPath id="clip0_2_1731">
<rect width="20" height="20" fill="white"/>
</clipPath>
<clipPath id="clip1_2_1731">
<rect width="20" height="20" fill="white"/>
</clipPath>
<clipPath id="clip2_2_1731">
<rect width="21" height="20" fill="white" transform="translate(-0.5)"/>
</clipPath>
</defs>
</svg>
